<svg xmlns="http://www.w3.org/2000/svg" viewBox="0 0 760 560" role="img" aria-label="Abstract illustration of web design">
  <defs>
    <linearGradient id="g1" x1="0" x2="1" y1="0" y2="1">
      <stop offset="0%" stop-color="#eff6ff"/>
      <stop offset="100%" stop-color="#dbeafe"/>
    </linearGradient>
    <linearGradient id="g2" x1="0" x2="1" y1="0" y2="1">
      <stop offset="0%" stop-color="#1f6feb"/>
      <stop offset="100%" stop-color="#f59e0b"/>
    </linearGradient>
  </defs>
  <rect width="760" height="560" rx="32" fill="url(#g1)"/>
  <rect x="65" y="70" width="630" height="400" rx="28" fill="#ffffff" stroke="#cfe0ff" stroke-width="4"/>
  <rect x="95" y="100" width="570" height="42" rx="14" fill="#e8f1ff"/>
  <circle cx="124" cy="121" r="9" fill="#1f6feb"/>
  <circle cx="154" cy="121" r="9" fill="#f59e0b"/>
  <circle cx="184" cy="121" r="9" fill="#22c55e"/>
  <rect x="95" y="166" width="220" height="214" rx="24" fill="#f8fbff" stroke="#dbeafe" stroke-width="4"/>
  <rect x="348" y="166" width="317" height="70" rx="24" fill="url(#g2)"/>
  <rect x="348" y="252" width="317" height="128" rx="24" fill="#eff6ff"/>
  <rect x="95" y="402" width="570" height="34" rx="10" fill="#e8f1ff"/>
  <text x="125" y="290" font-family="Arial, Helvetica, sans-serif" font-size="22" fill="#182033" font-weight="700">HTML</text>
  <text x="392" y="208" font-family="Arial, Helvetica, sans-serif" font-size="22" fill="#ffffff" font-weight="700">CSS</text>
  <text x="392" y="300" font-family="Arial, Helvetica, sans-serif" font-size="22" fill="#182033" font-weight="700">JavaScript</text>
  <circle cx="563" cy="305" r="54" fill="#1f6feb" opacity="0.12"/>
  <circle cx="563" cy="305" r="34" fill="#f59e0b" opacity="0.28"/>
</svg>
